<?xml version="1.0" encoding="UTF-8"?>
<!-- Generator: Adobe Illustrator 17.0.0, SVG Export Plug-In . SVG Version: 6.00 Build 0)  -->
<!DOCTYPE svg PUBLIC "-//W3C//DTD SVG 1.1//EN" "http://www.w3.org/Graphics/SVG/1.1/DTD/svg11.dtd">
<svg version="1.1" id="Layer_1" xmlns="http://www.w3.org/2000/svg" xmlns:xlink="http://www.w3.org/1999/xlink" x="0px" y="0px" width="160px" height="160px" viewBox="0 0 160 160" enable-background="new 0 0 160 160" xml:space="preserve">
<g>
	<polygon fill="#365EB7" points="160,152.267 0,152.267 28.695,97.711 131.305,97.711  "/>
	<path fill="#1D4182" d="M84.762,97.711c-3.217,16.906,29.936,54.557,29.936,54.557H160l-28.695-54.557H84.762z"/>
	<polygon fill="#1E163A" points="109.006,97.711 114.096,97.711 133.166,152.267 125.229,152.267  "/>
	<polygon fill="#372A50" points="43.615,122.528 144.358,122.528 148.893,131.15 41.051,131.15  "/>
	<polygon fill="#372A50" points="58.276,97.711 50.994,97.711 41.051,131.15 50.829,131.15  "/>
	<path fill="#E33533" d="M80,7.733c-24.979,0-45.229,20.25-45.229,45.229C34.771,77.941,55.021,98.19,80,98.19   s45.229-20.25,45.229-45.229C125.229,27.982,104.979,7.733,80,7.733z"/>
	<path fill="#FF716F" d="M89.913,62.874c5.475-5.475,5.475-14.351,0-19.825c-5.475-5.475-14.351-5.475-19.825,0"/>
	<polyline fill="#E33533" points="112.4,84.453 80,116.853 48.249,85.102  "/>
	<path fill="#FF716F" d="M80,7.733c-24.979,0-45.229,20.25-45.229,45.229c0,13.249,5.697,25.166,14.774,33.438L80,116.853V7.733z"/>
	<path fill="#E33533" d="M70.087,43.049c-5.475,5.475-5.475,14.351,0,19.825c5.475,5.475,14.351,5.475,19.825,0"/>
</g>
</svg>