<?xml version="1.0" encoding="utf-8"?>
<!-- Generator: Adobe Illustrator 16.0.0, SVG Export Plug-In . SVG Version: 6.00 Build 0)  -->
<!DOCTYPE svg PUBLIC "-//W3C//DTD SVG 1.1//EN" "http://www.w3.org/Graphics/SVG/1.1/DTD/svg11.dtd">
<svg version="1.1" id="Calque_3" xmlns="http://www.w3.org/2000/svg" xmlns:xlink="http://www.w3.org/1999/xlink" x="0px" y="0px"
	 width="1920px" height="1920px" viewBox="0 0 1920 1920" enable-background="new 0 0 1920 1920" xml:space="preserve">
<path fill="#046799" d="M1479.591,213.375H440.406c-142.912,0-259.844,116.935-259.844,259.841v1039.19
	c0,143.001,116.935,259.844,259.844,259.844h1039.185c142.909,0,259.847-116.843,259.847-259.844V473.219
	C1739.432,330.31,1622.5,213.375,1479.591,213.375z M659.779,1518.43H424.042v-709.3h235.737V1518.43z M541.916,712.333h-1.546
	c-79.112,0-130.276-54.494-130.276-122.596c0-69.559,52.714-122.542,133.365-122.542c80.643,0,130.285,52.964,131.822,122.542
	C675.281,657.815,624.104,712.333,541.916,712.333z M1509.9,1518.43h-235.736v-379.481c0-95.322-34.116-160.36-119.408-160.36
	c-65.143,0-103.956,43.862-120.968,86.22c-6.214,15.161-7.757,36.308-7.757,57.493v396.123h-235.79c0,0,3.098-642.739,0-709.297
	h235.767v100.474c31.31-48.299,87.297-117.155,212.473-117.155c155.131,0,271.42,101.415,271.42,319.253V1518.43L1509.9,1518.43z"/>
</svg>
